HIERARCHY
ROOT root
{
	OFFSET	0	13.1	24.9
	CHANNELS 6  Xposition Yposition Zposition Xrotation Yrotation Zrotation
	JOINT spine_1
	{
		OFFSET	0	9.99999	0
		CHANNELS 3  Xrotation Yrotation Zrotation
		JOINT spine_2
		{
			OFFSET	0	112	-10
			CHANNELS 3  Xrotation Yrotation Zrotation
			JOINT spine_3
			{
				OFFSET	0	206.5	19.3
				CHANNELS 3  Xrotation Yrotation Zrotation
				JOINT spine_4
				{
					OFFSET	0	110.4	14.6
					CHANNELS 3  Xrotation Yrotation Zrotation
					JOINT neck_1
					{
						OFFSET	0	71.8	-50.3
						CHANNELS 3  Xrotation Yrotation Zrotation
						JOINT neck_2
						{
							OFFSET	0	86.2	-25.8
							CHANNELS 3  Xrotation Yrotation Zrotation
							JOINT head_ee
							{
								OFFSET	0	179.8	-8.7
								CHANNELS 3  Xrotation Yrotation Zrotation
								End Site
								{
									OFFSET	1	0	0
								}
							}
						}
					}
					JOINT left_clavicle
					{
						OFFSET	-43.2	22.4	-70.8
						CHANNELS 3  Xrotation Yrotation Zrotation
						JOINT left_shoulder
						{
							OFFSET	-93.9	-5.79999	48.7
							CHANNELS 3  Xrotation Yrotation Zrotation
							JOINT left_elbow
							{
								OFFSET	-291.4	-30.8	15.2
								CHANNELS 3  Xrotation Yrotation Zrotation
								JOINT left_lowarm_twist
								{
									OFFSET	-110.7	-3.89999	13.6
									CHANNELS 3  Xrotation Yrotation Zrotation
									JOINT left_hand
									{
										OFFSET	-110.7	-3.89999	13.6
										CHANNELS 3  Xrotation Yrotation Zrotation
										JOINT left_ee
										{
											OFFSET	-80.8	-5.10001	12.1
											CHANNELS 3  Xrotation Yrotation Zrotation
											End Site
											{
												OFFSET	1	0	0
											}
										}
									}
								}
							}
						}
					}
					JOINT right_clavicle
					{
						OFFSET	43.2	22.4	-70.8
						CHANNELS 3  Xrotation Yrotation Zrotation
						JOINT right_shoulder
						{
							OFFSET	93.9	-5.79999	48.7
							CHANNELS 3  Xrotation Yrotation Zrotation
							JOINT right_elbow
							{
								OFFSET	291.4	-30.8	15.2
								CHANNELS 3  Xrotation Yrotation Zrotation
								JOINT right_lowarm_twist
								{
									OFFSET	110.7	-3.89999	13.6
									CHANNELS 3  Xrotation Yrotation Zrotation
									JOINT right_hand
									{
										OFFSET	110.7	-3.89999	13.6
										CHANNELS 3  Xrotation Yrotation Zrotation
										JOINT right_ee
										{
											OFFSET	80.8	-5.10001	12.1
											CHANNELS 3  Xrotation Yrotation Zrotation
											End Site
											{
												OFFSET	1	0	0
											}
										}
									}
								}
							}
						}
					}
				}
			}
		}
	}
	JOINT left_hip
	{
		OFFSET	-82.8	-127.5	0.300001
		CHANNELS 3  Xrotation Yrotation Zrotation
		JOINT left_knee
		{
			OFFSET	-28.2	-396.7	2.2
			CHANNELS 3  Xrotation Yrotation Zrotation
			JOINT left_ankle
			{
				OFFSET	-11.7	-411.3	35.4
				CHANNELS 3  Xrotation Yrotation Zrotation
				JOINT left_toes
				{
					OFFSET	0	-60	-88.6
					CHANNELS 3  Xrotation Yrotation Zrotation
					JOINT left_foot_ee
					{
						OFFSET	-22.5	-16.5	-42.2
						CHANNELS 3  Xrotation Yrotation Zrotation
						End Site
						{
							OFFSET	1	0	0
						}
					}
				}
			}
		}
	}
	JOINT right_hip
	{
		OFFSET	82.8	-127.5	0.300001
		CHANNELS 3  Xrotation Yrotation Zrotation
		JOINT right_knee
		{
			OFFSET	28.2	-396.7	2.2
			CHANNELS 3  Xrotation Yrotation Zrotation
			JOINT right_ankle
			{
				OFFSET	11.7	-411.3	35.4
				CHANNELS 3  Xrotation Yrotation Zrotation
				JOINT right_toes
				{
					OFFSET	0	-60	-88.6
					CHANNELS 3  Xrotation Yrotation Zrotation
					JOINT right_foot_ee
					{
						OFFSET	22.5	-16.5	-42.2
						CHANNELS 3  Xrotation Yrotation Zrotation
						End Site
						{
							OFFSET	1	0	0
						}
					}
				}
			}
		}
	}
}
MOTION
Frames: 8
Frame Time: 0.02
2153.52 706.544 -1178.57 -28.1641 60.5257 21.7148 5.15263 0.232267 1.85289 5.15453 0.113913 1.86391 5.15652 -0.113333 1.86394 5.15172 0.182412 1.85846 -8.07306 9.50332 -3.03736 -8.0786 19.8819 -0.912209 -0.0 0.0 -0.0 -3.9046 4.26714 -6.76272 -23.9752 -24.6127 77.7366 0.66968 -18.3528 0.108183 5.34312 0.157377 -0.66411 1.54148 9.53574 14.0054 -0.0 0.0 -0.0 10.9298 4.33878 -21.8008 -6.75498 18.4988 -59.6104 1.60001 38.3975 -0.557176 13.6127 -0.27732 1.71271 0.32314 7.65756 1.06847 0.0 0.0 0.0 37.5813 -37.4423 0.988658 -1.30948 0.051699 0.194303 -5.09182 28.3247 0.800231 -23.6188 0.0 0.0 -0.0 0.0 -0.0 6.19086 5.12606 3.591 -22.907 -0.2498 -3.48302 37.1483 3.25935 4.6539 -10.3602 0.0 0.0 0.0 0.0 0.0 
2126.39 705.228 -1182.15 -26.0275 60.2203 20.228 4.99233 0.401326 1.74382 4.99398 0.289567 1.76581 5.00147 0.0681847 1.78809 4.99718 0.349681 1.7549 -6.77892 9.61109 -3.43254 -6.71399 20.3177 -1.52177 -0.0 0.0 -0.0 -3.66937 5.60378 -6.05834 -22.3201 -24.0266 76.9185 0.633495 -17.4227 0.097068 5.84569 0.168977 -0.72726 1.59022 9.64157 14.3676 -0.0 0.0 -0.0 10.796 5.00168 -21.5319 -8.44134 18.3761 -59.4254 1.51983 36.9728 -0.508154 13.5945 -0.277223 1.71039 0.348088 6.07153 0.226255 0.0 0.0 0.0 37.7722 -37.4024 2.03972 -5.16682 0.177985 0.77271 -3.43959 28.4862 0.539555 -22.6224 0.0 0.0 -0.0 0.0 -0.0 5.93229 4.82912 4.0255 -26.9459 -0.148876 -4.0945 34.4746 3.79688 4.40627 -9.42917 0.0 0.0 0.0 0.0 0.0 
2107.23 707.529 -1187.05 -25.9124 58.3729 19.8928 4.79286 0.543241 2.06906 4.79515 0.41051 2.09941 4.80833 0.139674 2.13459 4.80228 0.474967 2.08578 -10.2644 9.32864 -3.59815 -10.3614 19.9862 -1.10571 -0.0 0.0 -0.0 -3.55135 5.40438 -5.87846 -22.3441 -23.6676 76.0656 0.621831 -17.1209 0.093605 7.11762 0.195856 -0.887513 1.50989 8.89873 13.5634 -0.0 0.0 -0.0 10.9765 6.32063 -21.9561 -10.0056 19.8343 -59.8851 1.44264 35.549 -0.462495 13.6852 -0.2777 1.72196 0.210693 5.32593 0.836677 0.0 0.0 0.0 37.593 -38.0026 1.79762 -6.80557 0.219791 1.02072 -3.51925 29.3848 0.555361 -22.4909 0.0 0.0 -0.0 0.0 -0.0 5.89013 5.54821 4.55688 -26.6243 -0.158491 -4.04608 33.6804 2.01633 4.30753 -9.49082 0.0 0.0 0.0 0.0 0.0 
2075.69 712.332 -1196.14 -23.2762 57.4457 18.0289 4.84422 0.429973 1.94106 4.84627 0.305612 1.96447 4.85506 0.0543794 1.98735 4.84974 0.367501 1.95384 -8.85556 8.99697 -5.10559 -8.84414 20.3833 -2.93702 -0.0 0.0 -0.0 -3.48969 6.61508 -5.52981 -20.8747 -24.3295 75.4941 0.604426 -16.6686 0.0885467 8.19317 0.215803 -1.02345 1.40354 8.32925 12.6466 -0.0 0.0 -0.0 10.808 6.50318 -21.5918 -12.0303 21.1725 -61.3822 1.248 31.724 -0.35462 11.4854 -0.260951 1.4415 0.657398 3.65017 -2.87936 0.0 0.0 0.0 38.1953 -36.9407 3.13926 -14.8585 0.32144 2.25117 3.6277 29.5188 -0.564375 -18.2682 0.0 0.0 -0.0 0.0 -0.0 4.58551 4.47385 5.08984 -27.1331 -0.143155 -4.12266 29.5658 3.83693 3.90063 -9.46452 0.0 0.0 0.0 0.0 0.0 
2047.75 710.91 -1204.69 -19.3593 56.1194 14.6216 4.8436 0.504418 1.92262 4.84557 0.381079 1.9508 4.85691 0.131079 1.98334 4.85169 0.442606 1.93777 -10.3792 9.0897 -5.16162 -10.4464 20.5777 -2.67518 -0.0 0.0 -0.0 -3.36258 7.5061 -5.12619 -19.5563 -24.3762 74.1626 0.609998 -16.8137 0.0901518 8.94812 0.228278 -1.11908 1.33562 9.06857 12.4699 -0.0 0.0 -0.0 10.8108 7.36415 -21.6104 -13.6885 21.1455 -62.3163 1.10164 28.6213 -0.281029 10.8514 -0.254126 1.36081 0.63877 3.98935 -2.61173 0.0 0.0 0.0 38.9875 -34.4051 4.39622 -22.5742 0.256188 3.43235 4.55324 28.7075 -0.702929 -16.7739 0.0 0.0 -0.0 0.0 -0.0 3.44403 6.57676 5.39839 -29.5924 -0.0594639 -4.49078 27.4175 2.35516 3.64818 -10.184 0.0 0.0 0.0 0.0 0.0 
2018.56 712.217 -1217.56 -16.7034 55.7509 12.5064 4.84742 0.416603 1.97366 4.84954 0.290195 1.99616 4.85791 0.0351648 2.01683 4.8524 0.35318 1.98599 -10.6898 9.11564 -5.5088 -10.766 20.8506 -2.94692 -0.0 0.0 -0.0 -3.22156 8.20743 -4.73819 -16.7812 -24.3766 72.2707 0.627513 -17.268 0.0952844 9.88864 0.242055 -1.23843 0.923363 9.72727 10.0078 -0.0 0.0 -0.0 10.8896 8.31091 -21.7917 -16.0792 22.4029 -63.9973 0.96298 25.5022 -0.217924 9.02568 -0.229488 1.12891 0.982178 3.03365 -5.32636 0.0 0.0 0.0 38.7364 -34.6263 5.4268 -27.7709 0.122969 4.21847 6.39588 28.6696 -0.982399 -15.1028 0.0 0.0 -0.0 0.0 -0.0 2.29212 6.6939 5.34557 -31.0993 -0.000390922 -4.7145 24.9782 1.91248 3.36558 -10.5102 0.0 0.0 0.0 0.0 0.0 
1992.0 713.564 -1229.52 -15.6079 55.4537 12.0258 4.97871 0.281618 2.02597 4.98098 0.152156 2.03978 4.98446 -0.102861 2.04286 4.9787 0.220993 2.03348 -11.0694 9.19327 -4.74953 -11.1837 20.4905 -2.11214 -0.0 0.0 -0.0 -2.92772 8.91955 -4.08203 -14.9811 -22.5042 70.953 0.646852 -17.7672 0.101106 10.0058 0.243634 -1.25331 -0.102288 8.29504 2.78618 -0.0 0.0 -0.0 11.034 9.0661 -22.1135 -18.7215 23.6394 -64.6998 0.807588 21.804 -0.155549 7.0926 -0.195361 0.884355 1.02846 -0.406524 -7.05074 0.0 0.0 0.0 38.6066 -36.6893 6.71549 -32.494 -0.059514 4.92012 11.6695 28.4629 -1.76234 -10.5389 0.0 0.0 -0.0 0.0 -0.0 2.69261 7.05963 4.18898 -33.4308 0.102559 -5.05741 21.681 -1.15601 2.95202 -9.85625 0.0 0.0 0.0 0.0 0.0 
1968.75 716.518 -1239.88 -14.4428 56.8038 11.097 4.98442 0.147658 2.08675 4.98684 0.0146032 2.09191 4.98532 -0.245894 2.07747 4.97931 0.0852152 2.09023 -11.9162 9.08905 -4.21141 -12.0762 19.9343 -1.46207 -0.0 0.0 -0.0 -3.08828 9.78649 -4.20195 -13.9624 -22.9585 69.5753 0.735082 -20.0085 0.129673 10.3314 0.247861 -1.29468 -0.44238 8.19109 0.542752 -0.0 0.0 -0.0 11.0932 9.38547 -22.2452 -20.5854 24.0141 -65.6301 0.636377 17.4972 -0.0979327 6.02762 -0.17304 0.750146 1.21413 -0.929175 -8.51177 0.0 0.0 0.0 37.7878 -36.7182 8.09687 -34.7652 -0.167744 5.25174 10.9618 29.1943 -1.66731 -10.0709 0.0 0.0 -0.0 0.0 -0.0 3.10051 7.75131 3.561 -35.3537 0.197933 -5.33697 17.953 -1.62343 2.48594 -10.5573 0.0 0.0 0.0 0.0 0.0 
